<?xml version="1.0" standalone="no"?>
<!DOCTYPE svg PUBLIC "-//W3C//DTD SVG 20010904//EN"
 "http://www.w3.org/TR/2001/REC-SVG-20010904/DTD/svg10.dtd">
<svg version="1.0" xmlns="http://www.w3.org/2000/svg"
 width="400.000000pt" height="400.000000pt" viewBox="0 0 400.000000 400.000000"
 preserveAspectRatio="xMidYMid meet">
<metadata>
Created by potrace 1.15, written by Peter Selinger 2001-2017
</metadata>
<g transform="translate(0.000000,400.000000) scale(0.100000,-0.100000)"
fill="#fe5e3a" stroke="none">
<path d="M705 3133 c-44 -7 -87 -14 -95 -15 -26 -6 -134 -51 -165 -70 -16 -9
-47 -27 -67 -38 -55 -29 -161 -132 -214 -207 -71 -99 -126 -231 -139 -335 -2
-15 -9 -54 -15 -88 -6 -33 -8 -69 -5 -80 8 -25 14 -56 21 -110 20 -155 106
-322 228 -443 83 -81 250 -187 289 -181 9 1 17 -1 17 -5 0 -8 69 -28 127 -37
l42 -6 3 95 c2 52 1 106 -2 121 -4 22 -109 159 -175 231 -12 12 -42 50 -68 84
-57 76 -61 109 -18 152 54 53 108 36 176 -56 92 -126 85 -150 85 269 0 325 2
371 17 396 31 53 86 64 130 26 l28 -24 5 -323 5 -323 28 35 c15 19 48 57 71
84 24 28 61 71 82 96 63 75 110 88 163 43 44 -36 42 -78 -5 -141 -20 -26 -44
-55 -53 -63 -10 -8 -53 -57 -97 -109 -43 -52 -105 -124 -136 -160 l-58 -65 0
-184 0 -184 48 6 c47 7 99 20 137 35 124 49 276 154 331 228 16 21 31 40 34
43 18 17 80 113 76 117 -3 3 1 12 9 19 20 20 66 169 68 220 1 24 6 44 11 44 8
0 2 208 -8 260 -19 103 -103 284 -149 324 -12 10 -20 21 -18 24 5 6 -119 132
-130 132 -4 0 -21 12 -36 26 -33 31 -142 84 -232 113 -103 34 -229 43 -346 24z"/>
<path d="M3774 1855 c-21 -24 -62 -57 -91 -72 -59 -31 -69 -53 -24 -53 17 0
32 -4 35 -9 3 -4 -17 -46 -46 -92 -28 -46 -80 -131 -114 -188 -65 -106 -77
-148 -49 -171 22 -18 38 -7 53 36 27 77 206 385 240 412 9 6 30 12 48 12 17 0
42 9 55 20 l24 19 -47 1 c-26 0 -49 4 -52 9 -3 4 7 28 22 52 16 24 31 50 36
57 5 8 -1 12 -23 12 -23 0 -38 -10 -67 -45z"/>
<path d="M2040 1799 c-29 -13 -83 -59 -153 -130 -62 -63 -115 -109 -127 -109
-32 0 -68 -18 -80 -41 -11 -20 -10 -21 19 -17 17 2 31 2 31 0 0 -3 -24 -37
-54 -76 -29 -39 -61 -83 -71 -98 l-17 -28 41 0 c38 0 42 3 62 43 11 23 39 70
62 105 l42 62 57 0 c64 0 88 -7 88 -25 0 -6 -16 -42 -35 -78 -19 -36 -35 -72
-35 -80 0 -17 47 -50 60 -42 4 3 16 29 26 58 22 66 111 272 163 375 30 59 37
82 28 91 -17 17 -56 13 -107 -10z"/>
<path d="M3496 1813 c-4 -4 -39 -6 -78 -5 -59 3 -80 -1 -124 -23 -110 -54
-224 -227 -232 -350 -4 -61 -3 -66 26 -95 26 -26 38 -30 82 -30 31 0 66 8 91
20 43 23 99 92 99 124 0 18 -5 16 -37 -16 -49 -46 -73 -58 -118 -58 -28 0 -38
5 -46 24 -50 108 174 438 237 351 15 -20 10 -57 -12 -92 -36 -57 -7 -56 55 2
48 45 106 137 94 149 -8 8 -28 8 -37 -1z"/>
<path d="M2250 1539 c-55 -85 -126 -226 -118 -235 16 -15 59 9 87 49 39 57
110 127 140 138 44 17 46 -5 7 -77 -38 -68 -37 -92 2 -80 11 4 32 25 48 47 15
22 50 60 77 85 80 72 101 54 45 -37 -31 -52 -45 -128 -23 -135 6 -2 39 47 74
109 89 156 88 215 -3 172 -18 -9 -52 -32 -74 -51 -22 -19 -43 -34 -45 -34 -3
0 -3 16 0 35 4 26 2 36 -10 41 -17 6 -102 -28 -129 -53 -30 -27 -32 -7 -4 42
l27 45 -31 0 c-26 0 -36 -8 -70 -61z"/>
<path d="M3948 1592 c-9 -4 -29 -25 -43 -47 -53 -79 -142 -154 -165 -140 -20
12 -10 44 35 111 25 36 45 68 45 70 0 2 -10 4 -22 4 -46 0 -158 -166 -158
-234 0 -51 50 -47 123 9 64 49 62 30 -14 -114 -94 -180 -186 -298 -211 -273
-28 28 50 172 135 250 26 23 42 42 36 42 -29 0 -84 -38 -138 -95 -75 -80 -121
-171 -121 -237 0 -61 17 -70 77 -38 85 45 191 188 338 455 42 77 90 161 105
187 34 55 27 70 -22 50z"/>
<path d="M2784 1566 c-84 -39 -169 -158 -162 -228 3 -29 7 -33 34 -36 23 -2
43 6 78 32 25 20 47 33 47 28 1 -4 2 -11 4 -17 1 -5 3 -16 3 -22 5 -34 31 -4
72 79 25 51 47 96 48 100 7 15 -47 8 -60 -8 -46 -59 -109 -115 -125 -112 -44
9 12 115 78 149 41 20 72 21 127 4 18 -6 22 -4 22 13 0 47 -85 56 -166 18z"/>
<path d="M2116 1558 c-9 -12 -16 -27 -16 -33 0 -5 -21 -54 -47 -107 -38 -81
-44 -100 -33 -113 7 -8 15 -15 19 -15 4 0 24 33 46 73 21 39 58 102 82 140 24
37 43 69 43 72 0 3 -18 5 -39 5 -30 0 -44 -6 -55 -22z"/>
<path d="M3456 1558 c-9 -12 -16 -27 -16 -33 0 -5 -21 -54 -47 -107 -38 -81
-44 -100 -33 -113 7 -8 15 -15 19 -15 4 0 24 33 46 73 21 39 58 102 82 140 24
37 43 69 43 72 0 3 -18 5 -39 5 -30 0 -44 -6 -55 -22z"/>
<path d="M750 1221 c0 -177 3 -272 10 -276 6 -3 8 -10 5 -15 -8 -12 35 -40 61
-40 13 0 32 12 43 26 20 26 21 39 21 300 l0 274 -69 0 -70 0 -1 -269z"/>
</g>
</svg>
